# xmcd
#
# Track frame offsets:
# 183
# 17870
# 49440
# 59638
#
# Disc length: 1013 seconds
#
#
# Revision: 0
# Processed by: cddbd v1.4PL0 Copyright (c) Steve Scherf et al.
# Submitted via: FreeRIP 2.11 
#
DISCID=3803f304
DTITLE=B B Queen - Blueshouse
DYEAR=1991
DGENRE=Blues
TTITLE0=Blueshouse
TTITLE1=Blueshouse ( Haarlem Mix)
TTITLE2=Blueshouse (Ballad Mix)
TTITLE3=Love You Nights
EXTD=
EXTT0=
EXTT1=
EXTT2=
EXTT3=
PLAYORDER=
